HIERARCHY
ROOT Hips
{
  OFFSET 0.142454 103.394 1.42217
  CHANNELS 6 Xposition Yposition Zposition Zrotation Xrotation Yrotation
  JOINT Spine
  {
    OFFSET 0 10.1816 0.1315
    CHANNELS 3 Zrotation Xrotation Yrotation
    JOINT Spine1
    {
      OFFSET 0 10.0835 -1.0008
      CHANNELS 3 Zrotation Xrotation Yrotation
      JOINT Spine2
      {
        OFFSET 0 9.1 -1.3734
        CHANNELS 3 Zrotation Xrotation Yrotation
        JOINT Neck
        {
          OFFSET 0 16.6717 -2.5162
          CHANNELS 3 Zrotation Xrotation Yrotation
          JOINT Head
          {
            OFFSET 0 9.6179 1.685
            CHANNELS 3 Zrotation Xrotation Yrotation
            End Site
            {
              OFFSET 0 0 0
            }
          }
        }
        JOINT LeftShoulder
        {
          OFFSET 4.5704 10.946 -2.628
          CHANNELS 3 Zrotation Xrotation Yrotation
          JOINT LeftArm
          {
            OFFSET 10.5924 -0.5246 -2.2321
            CHANNELS 3 Zrotation Xrotation Yrotation
            JOINT LeftForeArm
            {
              OFFSET 27.8415 -0.0001 0
              CHANNELS 3 Zrotation Xrotation Yrotation
              JOINT LeftHand
              {
                OFFSET 28.3288 0 0
                CHANNELS 3 Zrotation Xrotation Yrotation
                End Site
                {
                  OFFSET 0 0 0
                }
              }
            }
          }
        }
        JOINT RightShoulder
        {
          OFFSET -4.57 10.9462 -2.628
          CHANNELS 3 Zrotation Xrotation Yrotation
          JOINT RightArm
          {
            OFFSET -10.5928 -0.5248 -2.2321
            CHANNELS 3 Zrotation Xrotation Yrotation
            JOINT RightForeArm
            {
              OFFSET -27.8415 0 0
              CHANNELS 3 Zrotation Xrotation Yrotation
              JOINT RightHand
              {
                OFFSET -28.3288 0 0.0001
                CHANNELS 3 Zrotation Xrotation Yrotation
                End Site
                {
                  OFFSET 0 0 0
                }
              }
            }
          }
        }
      }
    }
  }
  JOINT LeftUpLeg
  {
    OFFSET 8.2078 -6.7517 -1.5996
    CHANNELS 3 Zrotation Xrotation Yrotation
    JOINT LeftLeg
    {
      OFFSET 0 -44.3705 0.2846
      CHANNELS 3 Zrotation Xrotation Yrotation
      JOINT LeftFoot
      {
        OFFSET 0 -44.4279 -2.9822
        CHANNELS 3 Zrotation Xrotation Yrotation
        JOINT LeftToeBase
        {
          OFFSET 0 -8.7287 10.7106
          CHANNELS 3 Zrotation Xrotation Yrotation
          End Site
          {
            OFFSET 0 0 0
          }
        }
      }
    }
  }
  JOINT RightUpLeg
  {
    OFFSET -8.2078 -6.7517 -1.5996
    CHANNELS 3 Zrotation Xrotation Yrotation
    JOINT RightLeg
    {
      OFFSET 0 -44.3705 0.2862
      CHANNELS 3 Zrotation Xrotation Yrotation
      JOINT RightFoot
      {
        OFFSET 0 -44.4277 -2.9838
        CHANNELS 3 Zrotation Xrotation Yrotation
        JOINT RightToeBase
        {
          OFFSET 0 -8.7287 10.7106
          CHANNELS 3 Zrotation Xrotation Yrotation
          End Site
          {
            OFFSET 0 0 0
          }
        }
      }
    }
  }
}
MOTION
Frames:	19
Frame Time:	0.0333333
2.35957 121.112 0.470916 -4.29773 15.3497 1.85903 3.80362 20.0695 1.87995 0.0279708 -0.70839 -1.21718 2.6592 -0.968279 -1.15508 -1.45222 -4.99553 1.23685 -1.05773 -14.9424 1.05572 0.569704 1.3305 -1.72898 -36.0299 -38.83 -7.60943 -0.000201274 -2.06498e-06 -65.7483 27.1449 30.8152 -30.6256 2.61392 1.59053 1.44153 38.5307 -17.4704 9.76009 -5.33001e-06 2.04117e-06 30.2473 -40.7943 -5.12424 7.05769 25.5141 -55.6944 26.2033 7.64028 61.3409 -0.253558 1.15301 -14.2034 6.47159 -8.68874e-08 -4.64807 6.17109e-06 -14.0301 -46.5273 -40.1526 -15.2529 59.2537 20.9992 -1.27643 -20.6747 -15.7313 6.9816e-07 -4.89199 2.92636e-06 
2.84572 112.669 1.63649 -4.89324 15.8198 1.90656 4.24584 17.8482 1.26832 0.362097 -0.401628 -1.42069 2.62808 -0.698641 -1.39778 -1.5361 -5.29112 1.42793 -0.858423 -14.851 1.73924 1.96166 1.31042 -0.17898 -35.0646 -38.8795 1.77332 -0.000198555 -1.31865e-07 -77.0273 21.1206 32.3667 -27.7566 3.31885 1.43305 0.888329 24.4166 -8.90227 3.21021 1.36091e-06 -1.15905e-08 37.3799 -40.9977 -12.3887 1.01647 22.0184 -50.7369 23.6978 6.1195 52.0851 0.871616 -1.78587 -10.7261 3.35275 -3.81243e-06 -5.69348 -4.70126e-06 -10.6094 -41.8966 -39.3334 -13.6557 50.4617 20.4572 0.535796 -16.4796 -13.2335 1.15555e-06 -6.8191 -5.17452e-06 
3.38836 102.166 1.92309 -5.36109 17.1353 3.02315 5.13253 18.2507 0.7117 0.644401 -0.998716 -1.6094 2.52825 -1.33109 -1.59225 -1.76023 -6.03647 1.42311 -1.18172 -17.5655 1.46305 3.84776 1.15257 1.69477 -29.5805 -40.4835 11.2717 -0.000183671 2.69468e-06 -86.7603 16.9644 28.9997 -21.1427 0.966426 1.33238 0.485 10.6221 -3.49745 -6.32521 -3.68127e-06 5.38361e-06 43.1243 -39.4048 -23.8238 -1.01876 20.0598 -51.3093 23.1924 5.85593 50.2318 0.0278451 -4.09109 -7.8992 0.95613 -2.75986e-06 -7.39733 2.89543e-06 -10.7667 -41.8349 -39.919 -14.2724 49.4242 20.9807 1.04756 -13.5779 -11.363 -2.40383e-06 -9.219 -7.9699e-07 
3.8535 90.6035 0.927832 -5.78948 18.0034 4.78328 6.56002 22.8606 0.10409 0.82999 -2.36038 -1.76628 2.3253 -2.72609 -1.74049 -2.09811 -7.12387 1.21702 -2.13261 -23.3436 0.301936 5.20447 0.927388 2.37797 -19.4717 -46.901 19.8824 -0.000117722 -4.31604e-07 -89.7746 16.3856 24.6974 -15.9601 -4.62903 1.45223 0.42867 2.0201 -3.11746 -17.5421 2.14657e-06 2.58305e-07 41.6002 -33.6043 -38.6279 2.25434 22.7099 -58.5764 26.7901 7.81814 61.0073 -2.89821 -3.60942 -12.4012 -0.184883 2.07282e-07 -10.0686 1.61882e-06 -15.6055 -46.7393 -43.0168 -19.4295 60.1127 26.979 -2.12916 -20.7454 -13.8938 2.98485e-06 -11.7887 6.36572e-06 
4.12013 79.9441 -1.15667 -6.15381 17.501 6.16808 8.0025 30.9585 -0.848493 1.0917 -3.65999 -1.88298 2.20454 -4.0577 -1.85768 -2.33426 -7.96459 0.936138 -3.09186 -30.2282 -1.05472 5.80575 0.673378 1.51428 -4.50923 -55.8925 31.0399 -0.000195029 -1.62364e-06 -88.5506 18.3446 22.8614 -13.4209 -9.77384 1.57091 0.626464 -2.20406 -6.74015 -23.6129 -4.23982e-07 3.25435e-06 29.7893 -21.9742 -51.4653 10.8268 35.8943 -69.1599 40.3661 22.6722 79.8968 -17.9541 -1.1747 -23.119 0.0351474 2.12764e-07 -12.0657 2.62288e-06 -25.2632 -54.2188 -50.5184 -48.4022 76.9137 55.9603 -9.09077 -35.5431 -20.5964 -4.07138e-06 -12.7885 -4.89881e-06 
4.33087 71.6728 -2.94992 -6.27953 16.303 6.84924 8.44576 39.7106 -1.95768 1.72841 -4.32669 -1.94147 2.47822 -4.75547 -1.91917 -2.23941 -7.70118 0.741 -2.922 -34.4828 -1.64161 6.2957 0.381319 0.714208 9.84836 -60.1498 42.1004 -0.000212861 2.27165e-06 -84.1739 23.65 19.8167 -15.2661 -10.7096 1.48956 0.733836 -3.54596 -12.1337 -27.0968 -2.55032e-06 8.60684e-06 26.926 -20.1826 -55.4603 9.447 63.3315 -75.5426 68.622 141.586 83.5587 -137.038 1.90526 -23.587 1.04337 -3.54826e-06 -12.135 -5.30188e-06 -38.0571 -60.2339 -62.3507 -124.231 78.0472 130.84 -14.0717 -38.4456 -25.5096 6.43188e-06 -12.535 -3.35459e-06 
4.5528 66.1415 -3.9665 -6.4615 15.6308 7.5621 8.01458 46.9903 -2.66733 2.68592 -4.80796 -1.95889 3.10518 -5.26495 -1.92472 -1.88561 -5.99816 0.65486 -1.37263 -33.7836 -1.35399 6.77561 0.10554 1.38246 7.1924 -57.5588 39.3635 -0.000210288 3.46192e-06 -80.9015 31.0861 13.0065 -18.9343 -5.73444 1.09801 0.68511 -2.89157 -17.4705 -29.9405 4.85606e-06 2.02414e-06 45.342 -35.0603 -46.6018 -7.14168 92.5054 -76.5707 98.8205 162.904 75.9436 -158.081 4.33858 -22.8316 1.51264 2.37164e-06 -12.5495 -5.8065e-06 -51.734 -62.9563 -76.0117 -148.557 70.7809 153.953 -15.2496 -37.4617 -26.3235 1.01302e-05 -13.77 -1.73703e-05 
4.71213 62.6495 -5.07737 -6.89309 15.751 9.10812 8.31311 52.821 -3.41776 3.47496 -5.82272 -1.96811 3.60466 -6.3033 -1.91904 -1.68345 -3.56764 0.556699 0.122113 -29.7068 -1.43563 6.54766 0.0174899 2.57585 -8.25959 -50.2808 23.973 -0.000201717 2.41333e-07 -81.1767 35.6325 7.73484 -19.8406 0.361038 0.887505 0.930934 3.16737 -22.3989 -20.0155 9.62933e-06 4.86674e-07 58.4343 -39.9894 -29.9219 -9.9822 110.686 -76.4304 117.858 166.551 71.9361 -161.193 6.53212 -25.7356 1.90624 -5.47029e-08 -11.2358 -5.8302e-06 -60.1689 -62.6086 -84.9143 -154.874 66.2077 159.534 -16.2327 -40.3255 -27.0942 -1.65326e-06 -13.6715 -7.29726e-06 
4.83791 60.5115 -6.30488 -7.16215 16.2972 10.979 10.3626 58.0627 -4.91964 3.78874 -7.23785 -1.97404 3.67387 -7.73846 -1.92795 -1.99679 -1.66179 0.364545 0.274406 -26.0702 -2.60341 5.41986 0.309879 2.36767 -24.0627 -42.0014 6.28156 -0.000208444 -3.22307e-06 -83.5942 35.9812 8.0677 -18.8399 5.04554 0.939231 1.72154 12.8535 -25.3117 -0.370458 8.18666e-06 7.40385e-06 57.5124 -37.3195 -14.8734 -2.2371 125.954 -76.7713 133.529 167.662 70.3072 -161.834 6.81939 -28.3585 2.00578 3.48286e-06 -10.8295 1.2922e-05 -66.7588 -62.0288 -91.5847 -157.011 64.0126 162.514 -17.023 -43.8473 -28.5394 3.25513e-06 -12.4959 7.81774e-06 
4.87607 59.4367 -7.37929 -6.86944 17.0634 11.7771 12.6134 62.7573 -6.21604 3.87461 -8.27018 -1.94752 3.56828 -8.78741 -1.91302 -2.73603 -0.993274 0.0975986 -0.740658 -24.909 -4.37517 2.55014 0.722096 0.611627 -37.8211 -35.2137 -11.5943 -0.000200379 1.12276e-05 -83.2016 36.5026 11.6253 -20.0809 7.49172 1.17809 2.9682 22.7784 -26.4417 20.3315 3.49607e-06 2.92284e-06 49.0242 -32.6903 -3.18896 8.54694 139.404 -76.6875 146.699 167.987 69.9403 -161.271 4.1385 -27.2777 1.30392 1.4333e-06 -10.9549 1.21312e-05 -72.7693 -61.907 -96.8591 -157.744 63.0434 164.84 -14.9538 -44.3135 -28.1876 -9.8373e-06 -11.9826 -7.72798e-06 
4.71764 59.1948 -8.07701 -6.44011 18.0277 11.4096 12.6694 66.1036 -5.70219 4.06585 -8.49529 -1.87166 3.63758 -9.02443 -1.83662 -3.37415 -1.22222 -0.16119 -1.661 -25.0271 -5.81142 -1.11216 1.03863 -1.20513 -49.1552 -28.9367 -27.4129 -0.000200393 -4.51065e-06 -76.4387 39.1936 14.1774 -23.497 8.67852 1.40888 4.21393 31.7614 -25.8588 38.7877 4.1351e-07 5.82741e-06 39.1489 -28.1309 6.96619 18.79 147.572 -76.1646 154.344 168.01 70.2076 -159.906 2.9756 -26.0996 1.15409 3.50456e-06 -11.7581 2.48552e-06 -77.2695 -62.606 -101.012 -157.861 62.9155 164.747 -14.2391 -43.6186 -27.4529 3.73961e-06 -11.8437 -1.02208e-05 
4.44631 59.6223 -8.46405 -6.50353 18.9629 11.0472 11.0926 67.3651 -4.28687 4.25557 -8.20611 -1.82099 3.78075 -8.74023 -1.78163 -3.42733 -1.49159 -0.293784 -1.36826 -24.2058 -6.14329 -4.26943 1.17636 -2.00451 -56.3825 -22.9262 -38.7155 -0.000210643 5.70284e-06 -63.0718 43.0281 12.3876 -27.2047 9.50518 1.50886 4.86626 38.5293 -22.1279 53.281 1.05053e-05 6.907e-06 29.5915 -24.4478 15.3074 27.3654 149.983 -75.6865 156.128 167.519 71.1763 -158.938 2.20492 -25.224 1.0239 5.00928e-07 -12.2287 -1.69205e-06 -79.2233 -63.5036 -103.283 -157.378 63.6877 163.162 -13.759 -42.8407 -26.3439 5.09016e-06 -11.819 -1.05827e-05 
4.18365 60.6399 -8.75141 -7.11336 19.407 11.1899 10.7518 66.7177 -4.61089 4.11768 -7.91605 -1.86977 3.64911 -8.44843 -1.84884 -2.91136 -1.32904 -0.264449 0.00481967 -21.7432 -5.44024 -6.40497 1.1957 -1.96564 -59.3908 -17.9191 -45.7867 -0.000201715 6.12124e-06 -44.7879 46.7174 6.43315 -30.2089 10.2066 1.47512 4.72679 42.5048 -15.9504 62.0239 -1.44176e-05 -9.42791e-06 21.2981 -21.2221 21.7082 33.1853 148.67 -75.9001 154.137 166.348 72.8267 -158.093 1.772 -24.51 0.736755 2.24111e-06 -12.1366 9.39873e-06 -78.0503 -64.2993 -102.839 -156.109 65.335 160.531 -12.7992 -42.0459 -25.1475 2.32455e-07 -11.6552 -7.18403e-07 
3.93917 62.2842 -9.10904 -7.83954 19.2398 11.2858 11.7981 64.8265 -6.35663 3.63712 -7.77913 -1.98587 3.19136 -8.30541 -2.00908 -2.25558 -0.930962 -0.157516 1.38699 -18.6462 -4.41487 -7.76093 1.18021 -1.73138 -59.8925 -14.05 -50.1559 -0.00019248 -9.2518e-07 -24.8677 47.0165 1.97906 -31.7407 10.7386 1.38421 4.16477 45.3509 -9.91389 64.0882 -7.69566e-06 -5.29516e-07 16.6473 -17.2849 27.3266 33.9073 143.96 -77.0041 148.608 164.102 75.2594 -156.279 1.59533 -23.6232 0.46789 -5.32507e-06 -11.8454 -4.56032e-06 -73.9496 -65.169 -99.5304 -153.639 67.8338 156.795 -11.8478 -40.8729 -24.0802 -2.88992e-06 -11.414 -3.51493e-06 
3.64435 64.5265 -9.42512 -8.38782 18.8354 10.9516 12.0812 61.8016 -7.10047 3.15223 -7.48275 -2.07925 2.7245 -8.0009 -2.14675 -1.81052 -0.698948 -0.0608579 1.99099 -16.0746 -3.59344 -8.67666 1.15937 -1.62913 -59.9588 -11.1848 -52.9636 -0.000234108 5.41687e-06 -6.42976 43.3005 3.40075 -32.6973 11.0946 1.31676 3.67084 47.9678 -5.912 60.3071 7.1867e-06 4.36575e-06 15.9735 -12.3286 31.3983 29.4339 134.224 -78.5552 137.975 159.769 78.4054 -152.298 1.41876 -22.6199 0.347655 8.17785e-07 -11.6483 2.18776e-05 -67.3507 -66.0883 -93.6078 -149.167 71.1223 151.085 -10.8625 -39.4589 -22.7899 2.89239e-06 -11.1771 -5.48227e-06 
3.2102 67.1737 -9.42118 -8.82957 18.3968 10.4653 10.8341 57.2505 -6.0896 2.92823 -6.62825 -2.10771 2.5138 -7.13757 -2.19828 -1.56319 -0.732264 -0.00408918 1.87463 -14.1796 -3.07317 -9.27593 1.13285 -1.64714 -60.4571 -9.37275 -49.9696 -0.000201937 -3.73376e-07 -3.08513e-06 37.4715 11.8745 -29.8982 11.3583 1.3131 3.46668 49.5659 -3.67811 54.3049 1.17364e-05 3.08707e-06 15.1638 -7.61146 31.9007 24.504 117.514 -79.6991 120.436 150.576 81.8776 -143.66 1.06547 -21.6995 0.296164 -3.1723e-06 -11.6257 -1.05513e-05 -58.3697 -66.5534 -85.2397 -141.358 74.8135 141.963 -9.23837 -38.2572 -20.944 4.74368e-06 -11.0487 2.30595e-06 
2.63197 70.1086 -9.10956 -9.2356 17.6924 10.142 9.16392 51.3187 -4.56792 2.88196 -5.20582 -2.10949 2.48278 -5.70491 -2.20592 -1.31267 -0.821025 0.0269208 1.55748 -12.3398 -2.70303 -9.6418 1.09975 -1.68189 -61.0539 -8.64043 -43.4881 -0.000213721 3.75998e-06 -0.860495 30.8965 21.7911 -24.2507 11.6258 1.37693 3.52588 49.8732 -1.73457 48.724 3.4118e-06 5.07402e-06 12.4333 -2.62468 28.7319 21.7944 94.4934 -79.5934 96.775 125.311 85.1032 -119.274 0.691316 -20.8353 0.24233 4.70297e-06 -11.7034 5.10043e-06 -47.4568 -66.0031 -74.8621 -126.873 78.3965 126.084 -6.76753 -37.199 -18.6843 3.72033e-07 -10.882 1.13045e-05 
2.01529 73.4877 -8.76288 -9.30087 16.4187 9.82649 7.86619 45.2236 -3.48733 2.77439 -3.67395 -2.11762 2.39344 -4.16048 -2.2193 -0.971508 -0.750153 0.0566972 1.37021 -10.0275 -2.32774 -9.90455 1.05624 -1.64128 -61.2239 -8.75352 -35.5486 -0.000207091 3.38573e-06 -4.62163 24.4736 31.2082 -18.2754 11.9358 1.49207 3.7448 50.0221 0.329731 43.4346 7.76738e-06 -2.62058e-06 10.0359 4.28278 23.3009 19.6233 69.4415 -77.6107 71.4029 59.9591 85.3731 -54.7915 0.349372 -19.7243 0.178536 -2.72794e-06 -11.7408 -7.54027e-06 -35.7088 -64.0709 -63.189 -97.5656 80.8113 95.2685 -3.86183 -35.7519 -16.3982 5.10861e-06 -10.6025 2.55976e-05 
1.46884 77.526 -8.512 -8.56061 14.515 9.16791 6.66675 40.2514 -2.747 2.53122 -2.56519 -2.10553 2.16788 -3.03719 -2.21835 -0.628408 -0.460188 0.0863363 1.23065 -7.232 -1.97511 -10.1413 0.992506 -1.45803 -61.0079 -9.2511 -29.4032 -0.0002056 -8.68539e-06 -5.20976 19.8657 39.728 -15.8803 12.279 1.64107 4.05364 51.0782 1.7321 37.8268 -6.69587e-06 -4.56399e-06 9.04126 12.1401 17.2278 16.5739 47.6022 -73.2351 49.6749 23.9897 80.1835 -19.2317 -0.293609 -17.9316 0.0878805 3.61614e-06 -11.702 3.91408e-06 -24.6601 -60.5021 -51.2085 -57.2287 79.2946 53.1626 -1.03597 -33.386 -14.4 1.31115e-06 -10.2267 2.98052e-06 
